<?xml version="1.0" encoding="iso-8859-1"?>
<!-- Uploaded to: SVG Repo, www.svgrepo.com, Generator: SVG Repo Mixer Tools -->
<svg fill="#000000" version="1.1" id="Layer_1" xmlns="http://www.w3.org/2000/svg" xmlns:xlink="http://www.w3.org/1999/xlink" 
	 viewBox="0 0 512 512" xml:space="preserve">
<g>
	<g>
		<path d="M371.28,244.753v95.598H202.578V264.3L39.617,388.15L202.578,512v-76.051h264.3V244.753H371.28z M450.008,419.079h-264.3
			v58.911l-118.21-89.84l118.21-89.84v58.911H388.15v-95.598h61.857V419.079z"/>
	</g>
</g>
<g>
	<g>
		<rect x="126.689" y="375.79" transform="matrix(0.6139 -0.7894 0.7894 0.6139 -269.78 264.1392)" width="16.87" height="64.119"/>
	</g>
</g>
<g>
	<g>
		<path d="M472.383,123.85L309.422,0v76.051h-264.3v191.196h95.598v-95.598h168.702V247.7L472.383,123.85z M123.85,154.779v95.598
			H61.992V92.921h264.3V34.01l118.21,89.84l-118.21,89.84v-58.911H123.85z"/>
	</g>
</g>
<g>
	<g>
		<rect x="368.5" y="72.106" transform="matrix(0.6139 -0.7894 0.7894 0.6139 63.3109 337.7681)" width="16.87" height="64.119"/>
	</g>
</g>
</svg>